<svg width="46" height="83" viewBox="0 0 46 83" fill="none" xmlns="http://www.w3.org/2000/svg">
<path d="M26.7078 42.0858C26.7078 42.2931 26.7078 42.5004 26.7078 49.3446C26.7078 56.1889 26.7078 69.6637 26.4164 76.2944C26.125 82.925 25.5423 82.3031 24.8535 80.5316C21.7089 72.4432 20.2443 66.8368 18.2782 62.3044C16.7184 58.7086 12.5918 58.6326 9.15988 57.7939C5.857 56.9868 3.17321 55.4916 2.36969 55.278C-4.10767 53.5562 14.8875 57.9792 18.9493 59.8795C21.8127 61.2192 22.9757 65.3166 24.3473 67.8325C25.7204 70.3512 26.5077 72.855 26.8049 77.356C26.9056 78.8801 28.2736 73.5083 29.0595 70.9924C29.9239 68.2249 31.6055 65.3417 33.1772 62.3044C34.5391 59.6724 36.5031 56.7605 39.0608 54.7597C41.0921 53.1707 43.1844 53.3934 43.8731 53.7043C46.0977 54.7087 40.2587 57.9918 37.804 60.3978C34.9359 63.209 33.5833 65.9448 32.1088 68.9821C31.0286 71.6049 29.8512 74.526 28.5768 77.2555C28.2795 77.8868 28.0853 78.5088 27.8851 79.1495" stroke="#0E402D" stroke-width="2" stroke-linecap="round"/>
<path d="M24.9276 40.4311C26.1343 40.4311 28.5754 40.3086 29.53 40.0619C31.6756 39.5071 32.2267 38.7018 33.4125 37.8074C34.5436 36.9544 35.6433 35.1837 36.9152 32.689C38.6112 29.3623 38.9521 26.5204 39.1833 25.5017C39.5451 23.9083 39.8215 22.8687 40.483 19.8025C41.0762 17.0534 42.0053 11.8377 42.5078 8.60545C43.0103 5.37316 43.0103 4.27099 42.9816 3.79505C42.9529 3.31911 42.8955 3.50281 42.8086 3.68929C42.421 4.52062 42.0262 5.35832 41.6497 6.31668C41.2167 7.41905 40.6387 9.4293 38.5557 13.7276C37.9645 14.9475 36.071 16.9107 32.9205 20.2432C29.8523 23.4885 27.8278 25.151 27.3653 25.7373C26.5037 26.8296 25.5709 27.9324 24.6416 29.0151C23.3794 30.4855 22.4412 31.5803 21.7996 32.4803C21.2177 33.2965 21.1024 36.323 21.91 38.4791C22.2454 39.3744 23.3593 39.3772 24.0556 39.7186C24.2304 39.8114 24.4025 39.9338 24.5772 40.0275C24.752 40.1212 24.9241 40.1825 25.2753 40.2455" stroke="#5D526F" stroke-width="2" stroke-linecap="round"/>
<path d="M21.1024 38.2045C20.9877 38.2045 20.8138 37.7758 20.1235 35.8099C19.5792 34.2597 18.5152 31.6397 17.5241 29.3036C15.6867 24.9726 14.5544 22.6219 14.3518 21.8816C13.9514 20.4179 13.685 18.9146 13.5972 16.8429C13.5403 15.5003 13.3373 14.5208 13.2495 13.7146C13.1609 12.9009 12.8748 11.6781 12.7279 10.7151C12.5888 9.80342 12.4088 8.8318 12.2645 7.50233C12.2079 6.98068 12.235 6.18213 12.2923 5.89453C12.3291 5.71008 12.9843 6.41036 14.5683 7.36409C17.6031 9.19138 19.941 10.1845 20.4321 10.5546C21.7764 11.5677 23.9887 13.6376 25.2432 14.8529C26.066 15.6501 26.7776 16.4913 27.8504 17.4191C28.7923 18.2337 29.2709 19.089 29.7369 19.8628C29.796 20.0799 29.796 20.3248 29.8534 20.5428C29.9108 20.7608 30.0255 20.9445 30.1438 21.3194" stroke="#443858" stroke-width="2" stroke-linecap="round"/>
<path d="M22.6674 11.2995C22.6674 10.4998 22.7821 9.26215 22.956 8.21193C23.2319 6.54535 24.2844 5.30992 24.9546 3.75872C25.4076 2.71045 25.7379 2.02567 25.9414 1.25193C25.9969 1.04071 25.9709 0.789907 25.9709 0.816812C25.9709 1.65797 26.5482 2.38935 27.907 3.8719C28.6484 4.68081 29.7892 5.54 30.6629 6.4724C31.3616 7.21804 32.4563 8.01525 33.2709 8.69993C33.9099 9.25658 34.4872 9.87447 35.3278 10.6779C35.5321 10.8653 35.7043 10.9878 35.8816 11.1139" stroke="#2E1951" stroke-width="2" stroke-linecap="round"/>
<path d="M17.2772 33.7511C17.5658 34.2428 18.1431 35.3543 18.7238 36.1911C19.3956 37.1592 20.2296 37.5215 21.2146 37.6783C21.97 37.8332 22.4916 37.8944 22.8385 38.0178C23.0133 38.08 23.1854 38.1412 23.3627 38.2043" stroke="#5D526F" stroke-width="2" stroke-linecap="round"/>
<path d="M16.5818 33.009C16.6965 32.456 17.159 31.2203 17.6233 30.3834C18.1527 29.4291 18.8386 28.6819 20.054 27.14C21.1659 25.7293 21.8536 25.2196 23.6453 23.2138C24.258 22.5279 25.3814 21.2061 27.1462 19.2309C29.4694 16.6309 30.1403 15.634 31.3539 14.4298C34.0453 11.7593 34.7757 11.0546 35.8772 10.19C37.0038 9.30562 37.6168 8.45693 38.3132 7.8075C38.956 7.20802 39.7033 6.78697 40.3996 6.41494C40.7465 6.10786 41.096 5.85736 41.4142 5.67274C41.5602 5.54935 41.675 5.36565 41.9671 5.17639" stroke="#5D526F" stroke-width="2" stroke-linecap="round"/>
<path d="M39.7066 12.5986C38.5 13.3334 35.1408 16.0498 33.3942 18.1586C32.6285 19.0831 32.2893 19.6476 32.0867 19.8341C32.0202 19.8954 31.9415 19.6532 32.0267 19.283C32.1119 18.9129 32.3414 18.3618 33.722 16.1491C35.1025 13.9364 37.6271 10.0788 38.899 8.21401C40.1709 6.34923 40.1135 6.59416 38.8503 8.61851C37.5871 10.6429 35.1199 14.4392 33.7628 16.5174C32.4058 18.5956 32.2336 18.8405 33.0343 17.6196C33.835 16.3987 35.6137 13.7045 36.7021 12.1328C38.0774 10.1471 38.8338 9.32546 38.9825 9.07311C39.7696 7.7369 36.6413 12.3407 35.2546 14.5302C33.7153 16.9608 32.0058 19.0223 30.7896 20.4743C29.4789 22.039 28.5806 23.1731 28.2911 23.2984C28.1711 23.3503 28.1163 22.9337 28.1155 22.6536C28.1138 22.125 28.5754 21.2026 30.3306 18.6206C31.6682 16.653 34.2088 13.5894 35.3651 12.1338C36.5213 10.6781 36.2918 10.9843 36.0588 11.2338C35.6245 11.6991 35.1303 12.1625 32.6883 14.8614C30.5002 17.2795 26.2872 21.724 24.0434 24.1491C21.5997 26.7903 21.0484 27.5001 20.526 28.0883C20.1989 28.4565 21.5057 27.0752 22.7176 25.9035C25.7932 22.9298 26.9514 21.9429 27.7069 21.3213C28.037 21.0497 26.5098 23.2752 23.7869 26.9231C21.9008 29.45 20.5842 31.2724 20.3486 31.9561C20.3202 32.0387 20.5772 31.9589 21.8135 30.4884C23.0497 29.0179 25.3448 26.1401 26.728 24.3207C28.1111 22.5014 28.5128 21.8279 27.7729 22.4912C24.985 24.991 22.9593 27.6245 22.4968 28.3036C21.7226 29.4404 20.9319 30.2222 20.3799 30.9653C19.8062 31.7376 19.3062 32.0795 19.2193 32.2354C18.7893 33.0063 19.767 30.1071 20.3469 28.2229C20.4715 27.818 20.5216 27.6319 20.5225 27.6291C20.8073 26.7171 19.4227 29.8511 18.9889 30.8391C18.5295 31.8856 18.4943 33.1279 18.5803 33.9619C18.6169 34.316 18.8385 34.4898 19.0133 34.6151C19.6231 35.0522 20.8624 35.1096 21.9395 35.2664C22.673 35.3731 23.1871 35.4825 23.4192 35.4222C24.82 35.0583 22.2047 32.2688 21.9448 31.9905C21.8247 31.8619 21.6274 31.8958 21.5101 31.9877C21.2587 32.1844 21.2188 32.6974 21.1606 33.2216C20.9935 34.7252 22.4898 36.2823 23.1575 37.0885C23.4449 37.4355 23.7087 37.7091 24.0556 37.8325C24.2303 37.8947 24.4024 37.9559 24.5485 37.865C25.5739 37.2267 24.8128 34.6865 24.379 33.2615C24.1903 32.6418 23.5974 32.2076 23.0193 31.8058C22.5054 31.4488 21.9161 31.586 21.4823 31.74C21.2716 31.8148 21.1058 31.9552 20.9885 32.1101C20.7607 32.4108 20.7546 33.0667 20.9267 33.9916C21.1428 35.1525 22.1421 35.8518 22.7785 36.2535C23.0599 36.4311 23.3001 36.4715 23.5044 36.4724C23.7087 36.4734 23.8808 36.4121 24.0269 36.2887C24.3314 36.0315 24.4633 35.6087 24.5502 35.2385C24.8481 33.97 22.4968 32.5787 21.6561 32.1139C21.2979 31.9158 20.8728 31.8958 20.5538 31.9877C19.9665 32.1567 20.8102 33.3765 21.3892 34.5808C22.2322 36.334 23.3001 36.902 24.7189 37.3993C25.0833 37.527 25.4422 37.4624 25.6482 37.3705C26.355 37.0555 26.1446 33.1019 25.6256 30.5701C25.5679 30.2884 25.2787 30.289 25.104 30.3187C24.9293 30.3483 24.7571 30.4708 24.6685 30.9013C24.2078 33.1377 25.2718 34.6717 26.1125 35.9733C26.854 37.1214 27.5912 37.6461 28.0251 37.9244C28.2159 38.0468 28.4015 38.019 28.5475 37.8353C29.383 36.7845 29.33 34.9352 29.5925 33.0787C29.7647 31.861 29.5073 30.8475 29.2474 30.2918C28.7981 29.3313 27.5982 29.1757 26.6697 29.1432C26.1995 29.1268 25.7986 29.4206 25.4517 29.7592C23.8662 31.3071 24.0582 35.1059 24.1729 36.1255C24.2507 36.8164 25.0405 37.0282 25.59 37.2137C26.0625 37.3733 26.4906 37.2156 26.8662 37.031C27.7839 36.5798 28.2276 35.4881 28.5493 34.59C28.643 34.3284 28.5788 33.9443 28.4928 33.6632C28.3355 33.1496 27.8851 32.8867 27.5095 32.6705C27.1076 32.4392 26.668 32.4525 26.3211 32.4831C25.9649 32.5145 25.5674 32.883 25.0762 33.6827C24.291 34.9611 24.232 36.2841 24.2894 36.8704C24.3173 37.1557 24.4615 37.3956 24.6067 37.5523C25.3805 38.388 27.1826 38.3901 28.0224 38.2676C28.3624 38.2181 28.4606 37.9003 28.5197 37.6822C28.7556 36.8122 28.7527 35.4287 28.4067 33.5723C28.2949 32.9726 27.8851 32.7011 27.5382 32.485C26.7678 32.0048 25.7986 32.3282 25.4517 32.5128C25.0484 32.7275 24.9275 33.8052 24.9562 35.1031C24.9715 35.7946 25.2162 36.1616 25.5622 36.5624C26.4895 37.6366 27.4747 37.4624 27.9955 37.4011C29.2145 37.2578 29.9072 33.2763 30.0576 30.2964C30.0833 29.7878 29.7994 29.5505 29.596 29.3631C29.3926 29.1757 29.163 29.0532 28.9874 29.1432C28.0995 29.5982 28.4641 31.0868 28.3763 32.2623C28.3298 32.8841 28.2311 33.9295 28.2311 34.8897C28.2311 36.5289 27.5356 30.4151 27.6217 29.8891C27.6512 29.7085 27.8799 29.7917 28.0833 30.2212C29.3924 32.9855 29.2743 35.3564 29.1596 35.6672C28.6259 37.1124 27.8833 32.3968 27.739 30.7918C27.6674 29.9951 27.7095 28.645 27.8529 27.8286C27.9964 27.0121 28.2833 26.7672 30.0376 24.7429C31.792 22.7185 35.0051 18.9221 36.6891 16.8746C38.7424 14.3779 38.7782 13.222 39.039 12.4158C39.2974 11.6169 39.8197 10.6262 40.3117 9.75872C40.4536 9.50853 40.6316 9.87098 40.6908 10.3655C40.9697 12.6984 40.576 14.6916 40.2022 17.0397C39.7892 19.6336 38.9538 21.4401 38.6947 22.3326C37.7245 25.675 36.0588 27.7469 35.0738 29.5078C34.4163 30.6833 33.6837 31.8884 32.6118 33.3125C31.2097 35.1753 30.2063 35.7256 29.4508 36.3778C28.7599 36.9742 28.2328 37.2137 28.0581 37.4299C27.6784 37.8996 29.2708 38.0784 29.9672 38.3892C30.1371 38.465 30.3141 38.5126 30.4888 38.4217C31.5372 37.8762 32.3414 36.2934 33.4142 35.0548C34.406 33.9098 35.1825 32.8904 35.7058 31.9302C36.1496 31.1159 36.344 30.2296 36.6048 29.4558C36.7664 28.9762 36.9821 28.5578 36.9829 28.3407C36.9898 26.6254 34.1462 32.4451 32.411 35.4408C31.4848 37.0397 30.4949 37.6442 29.2213 38.6341C28.8005 38.9612 28.2346 39.1305 27.6269 39.4088C27.3715 39.5258 27.1913 39.5034 27.1027 39.1973C26.8472 38.3151 27.1287 37.0356 28.0772 34.4852C28.8144 32.5031 30.4601 29.3018 31.459 27.2933C32.8078 24.5811 34.0193 21.9577 35.1208 19.1114C35.4658 18.2198 35.419 18.4694 34.0123 20.9836C32.6057 23.4978 29.8516 28.2739 28.3467 30.7955C26.8419 33.3172 26.6697 33.4396 26.5524 33.4109C25.5442 33.1638 26.548 29.9884 27.4148 27.7005C28.1884 25.6583 29.5021 24.1695 30.3115 23.2436C31.0655 22.381 32.797 21.1432 34.7956 19.8128C35.501 19.3432 35.7041 19.5233 35.1616 21.5764C34.6191 23.6296 33.3568 27.6096 32.6205 29.8436C31.5484 33.0962 31.1313 33.9332 30.9261 34.4926C30.9159 34.5204 31.0687 34.3117 32.8204 30.7269C34.5722 27.142 37.9575 20.1616 39.7875 16.4432C41.6175 12.7247 41.7896 12.4798 41.7922 12.3536C41.7948 12.2275 41.6227 12.2275 41.3619 12.5336C40.6542 13.3644 40.0005 15.0015 38.7034 17.7708C37.8307 19.634 36.4309 22.3771 35.6067 23.9496C34.033 26.9525 32.7552 28.7378 32.2319 29.4809C32.1057 29.6601 32.0006 29.8511 31.9128 29.8539C31.825 29.8566 31.7676 29.6729 31.7668 29.4252C31.7659 29.1775 31.8233 28.8714 32.9143 26.0807C34.0054 23.29 36.1284 18.0241 37.3368 15.097C38.7308 11.7203 39.0685 11.0548 39.1268 10.7755C39.1596 10.6183 38.8964 11.2979 38.6938 11.7293C38.4524 12.2435 37.5715 15.5989 36.1231 20.5429C34.9009 24.7149 35.2451 26.6355 34.9851 27.13C34.8733 27.3427 34.6678 27.3795 34.5792 27.1662C34.4905 26.9528 34.4905 26.4629 34.9208 24.0368C35.3511 21.6108 36.2118 17.2633 36.6839 14.9319C37.1559 12.6004 37.2133 12.4167 37.1568 12.3833C36.5545 12.0274 36.0571 13.4002 35.1364 15.3939C34.3401 17.1185 33.0682 20.388 32.2736 22.6721C31.479 24.9562 31.2495 26.1809 31.1313 27.3322C31.013 28.4836 31.013 29.5245 31.1869 30.4114" stroke="#5D526F" stroke-width="2" stroke-linecap="round"/>
<path d="M13.626 7.40295C13.626 7.52542 13.626 9.85408 13.6547 13.5011C13.6754 16.1347 14.4919 18.9479 15.0439 21.0344C15.6507 23.328 15.6533 24.0988 15.7411 24.8419C15.8319 25.6098 16.1749 26.3254 16.4644 27.0685C16.7522 27.4387 16.9295 27.9954 16.9009 28.4602C16.8722 28.5576 16.8148 28.3739 16.7557 28.3702" stroke="#443858" stroke-width="2" stroke-linecap="round"/>
<path d="M15.8862 30.9679C15.8862 30.9085 15.6567 29.6765 14.7882 27.666C14.3733 26.7056 14.0328 25.9617 13.6563 25.034C13.2662 24.0725 12.4157 21.2191 12.0037 19.3747C11.6938 17.9879 11.5985 16.7473 11.4821 15.3872C11.3615 13.9797 11.0178 12.9138 10.8735 11.7987C10.7063 10.5069 10.6701 5.83692 11.1891 4.0612C11.4292 3.23957 12.6939 4.86464 13.4781 5.05204C14.4186 5.27682 15.1873 5.66993 16.287 6.00948C17.7219 6.45252 19.9235 7.82602 21.4475 8.69997C22.255 9.16299 23.1263 10.1194 23.853 10.7716C24.4881 11.3415 24.9241 12.2236 25.4474 12.9667C25.9503 13.6807 26.2594 14.4502 26.6359 15.1933C26.7289 15.3769 26.781 15.5635 26.6958 15.6887C26.6106 15.814 26.3811 15.8752 26.2055 15.8149C25.3859 15.5334 24.6424 14.3351 23.6853 13.1597C22.6482 11.8861 21.6866 10.8097 20.7007 9.91161C19.4973 8.81533 18.7308 8.02642 17.9753 7.25082C17.3831 6.64279 16.4704 6.41584 15.5706 6.13566C15.2082 6.02279 14.8447 6.04288 14.6987 5.98072C14.4555 5.87724 15.3629 6.22658 15.7958 6.71829C16.5497 7.57452 17.5589 10.7188 18.8334 14.4595C19.5528 16.5712 19.9409 17.419 20.2608 18.3161C20.3398 18.5376 20.4625 18.7178 20.6077 18.8431C20.7529 18.9683 20.925 19.0296 21.0998 18.9999C21.9314 18.8586 22.6638 18.228 24.0817 17.5183C24.8993 17.109 25.6196 16.9291 26.2586 16.8039C26.5416 16.7484 26.4924 17.4821 26.4063 17.9144C26.198 18.9612 24.7572 19.6456 23.9461 20.5112C22.6973 21.8438 22.0343 22.7369 21.3371 23.6349C20.3543 24.9009 19.3706 25.9506 18.5543 27.037C18.4069 27.2332 18.3795 27.4387 18.2926 27.4109C17.486 27.1527 17.7432 25.3457 17.5676 24.2612C17.4697 23.6566 16.8182 21.156 16.1227 16.8057C15.1078 10.4577 15.7124 9.51082 15.568 8.70461C15.5027 8.33969 15.4237 7.90024 15.1638 7.46791C15.0407 7.26326 14.8465 7.15804 14.7578 8.01343C14.4802 10.6911 14.7265 13.1495 14.8708 14.26C15.3072 17.6178 16.9851 21.2525 17.3337 22.1505C17.5901 22.8111 17.9136 23.3585 18.1161 23.4837C19.7199 24.4753 18.4352 17.8049 18.5517 15.4531C18.6253 13.9659 18.842 12.604 18.7847 11.9527C18.7562 11.6298 18.4943 12.8433 18.4656 13.3981C18.4303 14.0805 18.3204 17.6992 18.2631 22.4632C18.2448 23.983 18.0909 23.6758 17.9744 23.2119C17.4632 21.176 17.5102 19.4118 17.4224 17.4914C17.3855 16.6836 17.2772 15.2072 17.3633 13.721C17.3792 13.4454 17.9136 14.4502 18.3474 15.1933C18.9453 16.2176 19.6523 17.0497 19.7975 17.2362C20.1531 17.693 19.1342 15.8195 18.41 13.72C17.8044 11.9645 17.3937 10.3736 17.3641 10.1872C17.2228 9.2955 19.1237 12.5279 20.1713 13.7998C21.3513 15.2326 21.7388 15.7509 21.7979 16.0292C22.0465 17.1999 18.849 14.2758 18.004 13.4974C17.382 12.9244 16.8738 12.231 16.4383 11.4879C16.3346 11.3109 16.2931 11.1177 16.3496 11.0537C16.8874 10.4444 19.5202 13.0177 21.3875 14.2656C22.5598 15.0489 23.5349 15.6897 23.6522 15.7527C24.6043 16.2645 22.0343 14.2721 21.2789 13.4983C20.8786 13.0884 20.2956 12.2941 19.6001 11.6437C19.3894 11.4466 19.3637 11.6669 19.5071 11.9759C20.6941 14.5323 21.7979 17.6045 21.8561 18.2864C21.8679 18.4249 21.6275 18.4729 21.5101 18.5963C21.3928 18.7197 21.3354 18.9034 21.3919 19.0593C21.6874 19.8743 23.3558 19.6493 24.2008 19.3728C24.6366 19.2303 24.6372 18.5379 24.6381 18.2902C24.6409 17.4872 22.7298 18.5954 21.8587 19.46C20.9988 20.3136 19.3776 23.583 18.1779 25.3986C18.0466 25.5972 17.9171 25.7688 18.0301 25.6185C18.5021 24.9907 19.8175 22.6367 21.4388 19.6391C22.787 17.1465 23.4757 15.8808 23.6809 15.4763C24.4981 13.8651 21.3423 18.5249 20.3234 20.1076C19.2678 21.7475 18.7273 22.3064 18.6682 22.5856C18.4531 23.6017 20.5182 21.1374 21.4171 20.6717C21.7353 20.5177 22.1943 20.2728 22.5168 20.0854C22.8394 19.8979 23.0115 19.7755 23.015 19.4638" stroke="#443858" stroke-width="2" stroke-linecap="round"/>
<path d="M35.8816 8.33092C35.5356 8.0229 33.9238 6.91702 32.4658 5.64414C31.7482 5.01756 31.0757 4.25251 29.4544 2.61596C28.5692 1.72246 27.7131 1.03506 27.0167 0.385637C26.8452 0.225709 26.6698 0.107311 26.6959 0.0442238C26.722 -0.0188634 26.9515 -0.0188634 26.9837 0.0729841C27.455 1.41889 24.1243 3.00561 23.2202 3.87492C22.5331 4.53552 21.9162 5.35839 21.7397 6.07091C21.5454 6.85534 23.1263 7.2139 23.7949 8.01826C24.681 9.08439 25.1571 9.81161 25.4484 10.5547C25.7394 11.2972 26.2004 12.0382 26.6646 12.7813C27.112 13.4975 27.3027 14.2648 27.6792 15.008C27.7721 15.1915 27.8243 15.3781 27.94 15.534C28.0556 15.6899 28.2277 15.8123 28.3738 15.7836C29.0996 15.6406 29.4448 14.5803 29.9969 13.9308C30.7411 13.0553 31.9938 12.0456 33.3265 10.7171C34.0711 9.97486 34.6627 9.75409 34.9809 9.56947C35.1446 9.47451 35.2417 9.26238 35.1861 9.16775C34.7541 8.43301 33.4508 9.75223 32.3215 10.5232C30.9022 11.4922 29.1631 13.0291 28.0026 14.1414C27.4568 14.6645 29.0414 12.2943 29.4179 11.3034C29.9027 10.0272 30.4324 8.39771 30.5202 7.43749C30.5577 7.02735 30.6654 6.66281 30.6654 6.75188C30.6654 8.88737 31.2427 9.99716 31.7356 10.7097C31.8579 10.8865 32.0529 10.988 32.1416 10.9592C33.083 10.6539 30.728 8.0897 28.9049 6.14235C28.2596 5.45304 27.4818 5.05595 26.7585 4.59207C26.4551 4.39748 26.2073 4.43435 26.0891 4.58743C25.4047 5.47347 27.4696 8.06743 28.3738 9.44144C28.6232 9.82045 29.0397 10.307 29.4457 10.6484C30.1723 11.2595 27.7722 8.27525 25.7179 6.0505C25.1506 5.43616 24.7555 5.30087 24.5234 5.29995C23.1323 5.29439 27.7548 9.67801 28.7798 10.8952C28.9174 11.0587 29.0971 11.1736 29.0997 11.2366C29.1393 12.1958 26.5585 8.71315 25.2788 6.51159C25.1182 6.23527 25.1589 7.40131 25.3032 7.8021C25.7447 9.02837 27.181 10.5501 28.0547 11.2673C28.2097 11.3945 28.4016 11.4222 28.5763 11.3619C29.7962 10.9409 30.1403 7.17308 30.462 5.73599C30.5031 5.55204 30.4915 5.36582 30.4055 5.27119C30.3194 5.17655 30.1473 5.17655 30.0012 5.2684C29.3159 5.69938 29.4483 7.63881 29.3909 9.30969C29.3734 9.82051 29.2188 9.63348 29.1023 9.32454C28.5546 7.87196 28.2903 6.60529 28.2025 5.58198C28.1738 5.36396 28.1164 5.18027 28.0869 4.99379C28.0573 4.80731 28.0573 4.62361 28.0573 4.43435" stroke="#2E1951" stroke-width="2" stroke-linecap="round"/>
</svg>
